<svg viewBox="0 0 512 512" width="64" class="logo__uS48q"><path id="bottom" fill="currentColor" d="M512,472V299.9L23.2,502.4c-5.1,2.1-3.6,9.6,1.9,9.6H472C494.1,512,512,494.1,512,472z"></path><path id="top" fill="currentColor" d="M0,40v172.1L488.8,9.6c5.1-2.1,3.6-9.6-1.9-9.6H40C17.9,0,0,17.9,0,40z"></path><path id="t" fill="currentColor" d="M127.9,221.1L27.5,262.7c-4.5,1.9-7.4,6.2-7.4,11.1v30.9l33.2-13.7V428l33.2-13.7
      c4.5-1.9,7.4-6.2,7.4-11.1V276.8c0-1.6,1-3.1,2.5-3.7l24.2-10c4.5-1.9,7.4-6.2,7.4-11.1V221.1z"></path><path id="i" fill="currentColor" d="M201.6,190.6v167.9c0,4.9-2.9,9.2-7.4,11.1l-33.1,13.7V215.4c0-4.9,2.9-9.2,7.4-11.1L201.6,190.6z"></path><path id="f" fill="currentColor" d="M350.9,159.6v-30.9l-101.3,42c-4.5,1.9-7.4,6.2-7.4,11.1v168l35-14.5c4.5-1.9,7.4-6.2,7.4-11.1v-54.1
      c0-1.6,1-3.1,2.5-3.7l34.4-14.2c4.5-1.9,7.4-6.2,7.4-11.1v-30.9l-44.2,18.3v-30.8c0-1.6,1-3.1,2.5-3.7l56.5-23.4
      C348,168.9,350.9,164.5,350.9,159.6z"></path><path id="o" fill="currentColor" d="M391.5,112c-4.5,1.9-7.4,6.2-7.4,11.1V291l100.4-41.6c4.5-1.9,7.4-6.2,7.4-11.1V70.4L391.5,112z
	 M417.2,233v-79.4c0-4.9,2.9-9.2,7.4-11.1l34.1-14.1v79.4c0,4.9-2.9,9.2-7.4,11.1L417.2,233z"></path></svg>
