<svg xmlns="http://www.w3.org/2000/svg" width="504.53552" height="658.20709" viewBox="0 0 504.53552 658.20709">
  <defs>
    <style>
      .a {
        fill: #e1e5e8;
      }

      .b {
        fill: #d5e9fc;
      }

      .c {
        fill: #ecf5fe;
      }

      .d {
        fill: #fff;
      }

      .e {
        fill: #fa6c68;
      }

      .f {
        fill: #ffbf52;
      }

      .g {
        fill: #3ecc75;
      }

      .h {
        fill: #f5f6f7;
      }

      .i {
        fill: #027af2;
      }

      .j {
        fill: #082f55;
      }

      .k {
        fill: #e55c4e;
      }

      .l {
        fill: #ffb094;
      }

      .m {
        fill: #3d99f4;
      }

      .n {
        fill: #630303;
      }

      .o, .p, .q, .r, .t {
        fill: none;
        stroke-linecap: round;
        stroke-linejoin: round;
      }

      .o {
        stroke: #e55c4e;
        stroke-width: 1.46707px;
      }

      .p {
        stroke: #630303;
        stroke-width: 2.2006px;
      }

      .q, .t {
        stroke: #125393;
      }

      .q {
        stroke-width: 1.80878px;
      }

      .r {
        stroke: #051f35;
        stroke-width: 2px;
      }

      .s {
        fill: #273237;
      }

      .t {
        stroke-width: 1.8088px;
      }

      .u {
        fill: #00b83d;
      }

      .v {
        fill: #fdc33b;
      }

      .w {
        fill: #faad2f;
      }

      .x {
        fill: #ffda47;
      }
    </style>
  </defs>
  <g>
    <ellipse class="a" cx="256.27264" cy="649.37646" rx="156.38708" ry="8.83063"/>
    <g>
      <g>
        <rect class="b" x="9.69199" y="49.40138" width="211.0639" height="446.91097"/>
        <rect class="c" x="26.92059" y="66.62985" width="176.60675" height="412.4538"/>
      </g>
      <g>
        <rect class="b" x="246.49905" y="49.40138" width="211.06393" height="446.91097"/>
        <rect class="c" x="263.72766" y="66.62985" width="176.60675" height="412.4538"/>
      </g>
    </g>
    <g>
      <path class="d" d="M319.84262,0H496.85623a7.6793,7.6793,0,0,1,7.67929,7.6793V140.99547a7.6793,7.6793,0,0,1-7.67929,7.6793H319.84262a7.6793,7.6793,0,0,1-7.67929-7.67929h0V7.6793A7.6793,7.6793,0,0,1,319.84262,0Z" transform="translate(0)"/>
      <g>
        <circle class="e" cx="328.46619" cy="13.23559" r="3.29032"/>
        <circle class="f" cx="341.24039" cy="13.23559" r="3.29032"/>
        <circle class="g" cx="354.01459" cy="13.23559" r="3.29032"/>
      </g>
      <rect class="h" x="336.29721" y="50.45365" width="144.10446" height="32.56873" rx="16.28435"/>
      <rect class="i" x="336.29721" y="93.87616" width="144.10446" height="32.56873" rx="16.28435"/>
      <circle class="a" cx="354.01459" cy="66.73801" r="3.29032"/>
      <path class="d" d="M382.77783,107.03473H433.921a3.1258,3.1258,0,0,1,3.12579,3.12579h0a3.1258,3.1258,0,0,1-3.12579,3.1258H382.77783a3.1258,3.1258,0,0,1-3.12579-3.1258h0A3.1258,3.1258,0,0,1,382.77783,107.03473Z" transform="translate(0)"/>
    </g>
    <g>
      <polyline class="j" points="153.703 286.79 170.655 610.405 224.933 610.405 227.19 360.598 279.642 610.405 334.352 610.405 279.384 280.598"/>
      <g>
        <path class="k" d="M355.51334,119.20541,365.8512,95.43913a3.97188,3.97188,0,0,1,4.77737-2.2219h0a3.97184,3.97184,0,0,1,2.671,4.94127v.00006q-.0255.08571-.055.17023l-7.36942,21.17689,14.02527,10.38284-8.129,13.29033-11.09677,10.32257-7.871-11.09677" transform="translate(0)"/>
        <path class="l" d="M367.31311,114.84914l-5.57071,8.76931a1.80206,1.80206,0,0,0,.38184,2.36254l11.54135,9.41716a3.26247,3.26247,0,0,0,4.89984-.91724l3.23212-5.6938a6.21233,6.21233,0,0,0-2.33576-8.46936q-.10089-.05727-.20386-.11073l-10.87335-5.64631A.82107.82107,0,0,0,367.31311,114.84914Z" transform="translate(0)"/>
        <path class="i" d="M199.12331,105.11047l-44.14,11.28a40.29312,40.29312,0,0,0-24.03,17.42l-29.63,46.66,29.93,23.22,21.16-26.32s.56,15.84,1.22,34.84c.17,4.69.34,9.57.51,14.46.16,4.79.33,9.57.48,14.18.18,5.13.35,10.04.5,14.47.38,11.35.65,19.62.65,20.63,0,3.62-2.07,9.03-2.07,10.84s129.04,1.29,128.52-2.06c-.52-3.36-5.16-13.94-5.16-13.94l-.92-17.76-.76-14.46-.74-14.18-.75-14.46-1.48-28.43,11.36,14.97,28.39-24-25.85-42.08a40.29408,40.29408,0,0,0-27.4-18.59l-38.37-6.69" transform="translate(0)"/>
        <g>
          <path class="m" d="M274.64334,224.39049l-120.5,2.28c-.17-4.89-.34-9.77-.51-14.46l120.26-2.28Z" transform="translate(0)"/>
          <path class="m" d="M276.14334,253.0305l-121.02,2.29c-.15-4.43-.32-9.34-.5-14.47l120.76-2.28Z" transform="translate(0)"/>
        </g>
        <g>
          <path class="n" d="M200.28754,95.521h0A17.36711,17.36711,0,0,1,186.299,84.99722L174.0574,55.85066a11.12567,11.12567,0,0,1,5.58582-14.40545l3.22494-1.49215-.8446-4.48283A19.0158,19.0158,0,0,1,200.2164,12.93594c12.73306-.32762,27.18942-1.00436,32.58328-2.40223C243.25526,7.824,242.094.85629,245.77139,4.14661s2.3226,14.32258,2.3226,14.32258,4.4516-3.871,6-.77418,5.41935,23.6129-9.48385,30.58064-30,19.54839-30,19.54839" transform="translate(0)"/>
          <g>
            <path class="l" d="M229.72334,107.89049a8.85324,8.85324,0,0,1,.12,1.35c.04,3.08-1.54,8.88-13.85,9.87-14.5,1.17-19.38-8.8-19.38-11.9,0-2.33.82-9.72.61-17.36a63.55663,63.55663,0,0,0-.61-7.50994l33.23,9.68S229.32333,105.66051,229.72334,107.89049Z" transform="translate(0)"/>
            <path class="k" d="M229.72334,107.89049a8.85324,8.85324,0,0,1,.12,1.35c-11.18,5-27.18-6.25-32.62-19.39a63.55646,63.55646,0,0,0-.61-7.50994l33.23,9.68S229.32333,105.66051,229.72334,107.89049Z" transform="translate(0)"/>
            <g>
              <g>
                <path class="l" d="M247.61011,36.95306s2.36111,15.86362,2.89256,27.43c.6171,13.43007-3.12442,33.71672-24.61917,36.36715s-32.42978-22.26658-32.42978-22.26658-3.71391,6.87983-10.61066,4.94616S171.73517,69.197,180.51871,65.5893s10.99493,5.55891,12.0571,5.48408S194.86816,53.695,194.86816,53.695C223.99718,51.66273,245.86816,44.695,247.61011,36.95306Z" transform="translate(0)"/>
                <path class="o" d="M179.87482,73.62083c-.21451-3.0449,4.69339-5.09858,7.45614-1.23693s-.57229,6.018-.57229,6.018" transform="translate(0)"/>
                <path class="o" d="M227.31,62.41145l5.218,11.09569a2.82971,2.82971,0,0,1-2.36179,4.02689l-3.52859.24859" transform="translate(0)"/>
                <ellipse cx="212.46619" cy="70.77587" rx="2.35442" ry="3.17077" transform="translate(-4.44876 15.10709) rotate(-4.03006)"/>
                <ellipse cx="242.46749" cy="68.66234" rx="2.35442" ry="3.17078" transform="translate(-4.22603 17.21035) rotate(-4.03006)"/>
                <path class="p" d="M206.59241,62.95546s4.57541-5.16142,9.39688-.662" transform="translate(0)"/>
                <path class="p" d="M246.66122,60.13257s-5.25387-4.469-9.39685.662" transform="translate(0)"/>
              </g>
              <path class="d" d="M226.173,85.76413a1.05834,1.05834,0,0,1,.97451,1.35339,5.34847,5.34847,0,0,1-10.36-.38868,1.05835,1.05835,0,0,1,1.07321-1.27657Z" transform="translate(0)"/>
            </g>
          </g>
        </g>
        <line class="q" x1="152.41656" y1="177.37242" x2="161.57783" y2="164.98532"/>
        <line class="q" x1="272.41656" y1="181.50145" x2="268.54559" y2="139.17886"/>
        <path class="l" d="M312.15851,172.46919l5.16128,9.03226,28.7742-40.64517-3.01852-12.17815a11.485,11.485,0,0,1,.0762-5.81734l.8873-3.21649a6.03363,6.03363,0,0,1,6.65933-4.36989l13.70954,1.93448a1.79479,1.79479,0,0,1,1.46731,2.29669h0a5.64619,5.64619,0,0,1-4.74911,3.97406l-6.25788.73147,8.75211,20.44a8.36875,8.36875,0,0,1-.0531,6.70959l-29.50592,66.00247a18.96058,18.96058,0,0,1-32.65424,3.39951l-17.63559-24.297Z" transform="translate(0)"/>
        <path class="l" d="M131.25526,203.695,118.223,221.88857l28.83872,28.45155,7.78674-3.11151.25861,7.62393,30.04086,19.59677a2.85446,2.85446,0,0,1,1.008,3.63791h0a2.85452,2.85452,0,0,1-3.47031,1.46088l-8.46264-2.8209,6.96542,5.91a2.85455,2.85455,0,0,1,.8136,3.21118l-.046.11828a2.8545,2.8545,0,0,1-3.66583,1.637l-9.35751-3.52164,5.10373,4.526a2.8545,2.8545,0,0,1,.58447,3.55194l-.06061.10608a2.85447,2.85447,0,0,1-3.81076,1.10825l-6.84909-3.61478,3.73779,4.205a2.85447,2.85447,0,0,1,.28324,3.41549l-.28168.44816a2.8545,2.8545,0,0,1-3.76385.99752l-14.70737-7.87277a19.84837,19.84837,0,0,1-7.705-7.37475l-1.54282-2.6016a19.84844,19.84844,0,0,0-5.78394-6.20166L91.49844,245.29353a27.3648,27.3648,0,0,1-7.612-37.06015l17.43335-27.76425Z" transform="translate(0)"/>
        <line class="o" x1="317.31979" y1="181.50145" x2="301.70688" y2="204.85629"/>
      </g>
      <line class="r" x1="227.19061" y1="360.59821" x2="242.84991" y2="341.23422"/>
      <path class="d" d="M334.352,610.40466,385.00266,639.821a5.12212,5.12212,0,0,1-2.57242,9.55146h-99.896a5.12212,5.12212,0,0,1-5.12213-5.12207h0q0-.16938.0112-.3385l2.219-33.50715Z" transform="translate(0)"/>
      <path class="d" d="M170.6552,610.40466,143.60748,642.269a4.31259,4.31259,0,0,0,3.28781,7.1034h76.44263a4.31257,4.31257,0,0,0,4.31256-4.3125v-.00007q0-.14263-.00943-.285l-2.27618-34.37018Z" transform="translate(0)"/>
      <path class="s" d="M217.76005,175.35149h-.2l-6.4,1.5a6.4499,6.4499,0,0,0-5,6.4c0,3.8,2.1,6.4,5.2,6.4v7.7a1.1355,1.1355,0,0,0,.3.8l2.1,1.8a.84371.84371,0,0,0,.7.2h.2l7.6-1.7a.97381.97381,0,0,0,.8-1v-15.7C222.96005,178.2515,220.66005,175.35149,217.76005,175.35149Z" transform="translate(0)"/>
      <line class="t" x1="215.76005" y1="177.05149" x2="239.71348" y2="108.45295"/>
      <line class="t" x1="215.76005" y1="177.05149" x2="186.62792" y2="108.30372"/>
    </g>
    <g>
      <path class="g" d="M97.99427,486.16647v104.41l-72.26-12.39-2.7-20.37-7.39-55.8a1.69331,1.69331,0,0,1,3.26-.83l18.08,46.82a1.69985,1.69985,0,0,0,3.28-.48l9.72-121.93a1.69578,1.69578,0,0,1,3.36-.16l21.64,120.54a1.69792,1.69792,0,0,0,3.31.14l16.36-60.39a1.69925,1.69925,0,0,1,3.34.44Z" transform="translate(0)"/>
      <g>
        <polygon class="u" points="97.994 557.816 97.994 590.576 25.734 578.186 23.034 557.816 97.994 557.816"/>
        <g>
          <path class="d" d="M110.18427,576.78644l-8.98,30.67-11.76,40.18a2.42108,2.42108,0,0,1-2.32,1.74h-53.72a2.412,2.412,0,0,1-2.32-1.74l-16.59-56.63-.73-2.49-3.43-11.73a2.4219,2.4219,0,0,1,2.32-3.1h95.22a2.37265,2.37265,0,0,1,1.33.4A2.41121,2.41121,0,0,1,110.18427,576.78644Z" transform="translate(0)"/>
          <path class="a" d="M110.18427,576.78644l-8.98,30.67-86.71-16.45-.73-2.49,50.23-14.83h40.74c1.48.13,2.97.26,4.47.4A2.41114,2.41114,0,0,1,110.18427,576.78644Z" transform="translate(0)"/>
          <path class="d" d="M118.109,589.949H2.41541a2.41543,2.41543,0,0,1-2.2109-3.38812L8.979,566.61755a2.41545,2.41545,0,0,1,2.2109-1.44268h98.1446a2.41542,2.41542,0,0,1,2.21089,1.44268l8.77453,19.94336A2.41555,2.41555,0,0,1,118.109,589.949Z" transform="translate(0)"/>
        </g>
      </g>
    </g>
    <g>
      <path class="v" d="M493.98477,299.24582v83.97665a6.38014,6.38014,0,0,1-6.37448,6.38578H378.42065a6.3876,6.3876,0,0,1-6.38565-6.38578V299.24582a6.3876,6.3876,0,0,1,6.38565-6.38565H487.60776a6.38017,6.38017,0,0,1,6.377,6.38327Z" transform="translate(0)"/>
      <g>
        <path class="w" d="M372.035,383.2226v-9.93732l53.90253-53.90241a9.99424,9.99424,0,0,1,14.134-.01089l0,0h0l.01087.01083L493.9848,373.294v9.92859a6.38759,6.38759,0,0,1-6.38568,6.38565H378.412a6.38017,6.38017,0,0,1-6.377-6.38327Z" transform="translate(0)"/>
        <path class="x" d="M493.98477,299.24582v9.93729l-53.90253,53.9024a9.99423,9.99423,0,0,1-14.134.01093l0,0h0l-.01086-.01087L372.035,309.17435v-9.92853a6.3876,6.3876,0,0,1,6.38565-6.38565H487.60776a6.38017,6.38017,0,0,1,6.377,6.38327Z" transform="translate(0)"/>
      </g>
    </g>
  </g>
</svg>
